<svg
  id="Layer_1"
  xmlns="http://www.w3.org/2000/svg"
  xmlns:xlink="http://www.w3.org/1999/xlink"
  x="0px"
  y="0px"
  width="512"
  height="512"
  viewBox="0 0 500 500"
  enable-background="new 0 0 500 500"
  xml:space="preserve"
>
  <path
    fill="#FEFFFF"
    opacity="1.000000"
    stroke="none"
    d="
M330.000000,501.000000 
	C220.000031,501.000000 110.500053,501.000000 1.000059,501.000000 
	C1.000039,334.333405 1.000039,167.666794 1.000020,1.000148 
	C167.666565,1.000099 334.333130,1.000099 500.999756,1.000049 
	C500.999847,167.666519 500.999847,334.333038 500.999939,500.999786 
	C444.166656,501.000000 387.333344,501.000000 330.000000,501.000000 
M336.231842,248.173904 
	C338.405853,247.337204 340.579865,246.500488 343.046936,246.372284 
	C354.894897,270.775696 366.769867,295.166046 378.578156,319.588654 
	C383.626373,330.029663 388.219818,332.899933 399.925507,332.352112 
	C405.064667,332.111603 410.039764,331.188690 414.277100,327.886292 
	C398.899475,296.299011 383.748749,265.177856 369.141785,233.538757 
	C392.512939,221.890366 415.884094,210.241974 439.255249,198.593597 
	C439.018311,198.112320 438.781372,197.631042 438.544434,197.149765 
	C387.193481,214.067322 335.842529,230.984863 284.326935,247.956635 
	C293.178711,263.587646 302.161499,279.450104 311.319580,295.622070 
	C317.053802,292.329071 322.173767,289.388855 327.506348,286.326538 
	C322.573883,276.462646 317.908112,267.132111 312.979645,257.276276 
	C319.504852,254.784790 325.523041,252.486862 331.761597,250.905350 
	C345.090485,278.069061 358.423035,305.230988 371.743530,332.398834 
	C373.391571,335.760071 375.452698,338.591980 381.103027,339.574432 
	C364.716278,309.042267 350.857239,278.564484 336.231842,248.173904 
M352.881653,202.019958 
	C338.248230,172.112274 323.647156,142.188675 308.955017,112.309853 
	C305.895355,106.087578 300.804779,101.895515 293.859131,101.460709 
	C287.195740,101.043587 283.036377,105.834663 279.340576,110.730354 
	C278.844208,111.387863 278.509216,112.171700 278.130585,112.912903 
	C262.906921,142.715302 247.695389,172.523880 232.463791,202.322220 
	C217.611191,231.379166 202.809952,260.462738 187.829987,289.453949 
	C183.505356,297.823547 177.249069,304.374146 167.082474,304.509644 
	C95.361008,305.465393 58.850674,231.198975 83.639984,177.958603 
	C99.941223,142.948181 130.431610,128.632217 167.012390,126.180687 
	C185.569397,124.937050 204.316299,126.564072 222.978241,126.830017 
	C230.262085,126.933815 233.816162,123.207024 233.830612,115.703621 
	C233.845657,107.885925 229.792648,103.102692 222.938934,103.063431 
	C202.108444,102.944107 181.277634,102.839401 160.446869,102.820366 
	C142.048431,102.803558 124.794380,107.344139 109.008865,116.785141 
	C79.243973,134.586914 62.102516,161.341537 54.489147,194.705200 
	C44.534859,238.327347 61.949154,282.622681 98.926620,307.491791 
	C117.387657,319.907745 138.059998,326.526398 159.819870,329.975220 
	C181.666595,333.437775 195.757553,326.194061 205.806320,306.570465 
	C217.260635,284.202026 228.595947,261.772614 240.530594,239.897842 
	C247.901550,252.890930 255.272507,265.884003 262.797180,279.148071 
	C268.903259,276.388763 274.585663,273.820892 280.669800,271.071472 
	C275.561401,260.596924 270.701447,250.631836 265.620697,240.213959 
	C315.585358,225.790863 365.715942,213.162994 411.764893,189.172058 
	C411.604492,188.651978 411.444092,188.131897 411.283661,187.611832 
	C391.902496,192.664520 372.521332,197.717209 352.881653,202.019958 
M164.253784,378.305878 
	C157.572861,369.592743 150.701508,361.016235 144.304565,352.099396 
	C141.738312,348.522247 138.969360,347.543945 134.783264,348.785614 
	C134.783264,365.948273 134.783264,383.142578 134.783264,400.344482 
	C137.884888,400.344482 140.617386,400.344482 143.990601,400.344482 
	C143.990601,389.013794 143.990601,378.030304 143.990601,365.570770 
	C152.720215,376.970581 160.635117,386.994843 168.161957,397.302460 
	C170.843277,400.974396 173.705353,401.371674 177.382385,400.141205 
	C177.382385,382.796844 177.382385,365.746033 177.382385,348.648438 
	C174.277328,348.648438 171.546173,348.648438 168.372864,348.648438 
	C168.372864,354.452911 168.372864,359.912537 168.372864,365.372131 
	C168.372864,370.861694 168.372864,376.351257 168.372864,381.840820 
	C167.987534,381.862701 167.602219,381.884552 167.216888,381.906403 
	C166.391312,380.896240 165.565735,379.886047 164.253784,378.305878 
M214.006241,375.500000 
	C214.006241,383.753815 214.006241,392.007660 214.006241,400.734436 
	C221.801331,400.734436 228.928055,400.829498 236.051361,400.713470 
	C248.563614,400.509705 258.710724,391.493744 260.408203,379.224854 
	C262.384857,364.938171 255.608093,352.238495 242.878708,349.612122 
	C233.636261,347.705170 223.871704,348.328674 214.006241,347.806244 
	C214.006241,357.544678 214.006241,366.022339 214.006241,375.500000 
M345.135681,379.536926 
	C342.018982,386.383881 338.902283,393.230865 335.802826,400.039886 
	C342.437592,402.207001 346.133606,400.031342 347.665833,394.135681 
	C348.543610,390.758331 350.663788,390.017212 353.980011,390.145538 
	C360.794922,390.409302 367.638580,390.395142 374.450836,390.076599 
	C378.165527,389.902893 380.094513,391.075592 381.529846,394.590302 
	C384.421783,401.671906 384.966187,401.733093 392.690521,399.986603 
	C392.690521,399.680878 392.796783,399.313477 392.675323,399.051849 
	C385.181183,382.912292 377.795074,366.719147 369.953491,350.749756 
	C369.203033,349.221436 365.603088,348.512817 363.324219,348.509125 
	C361.682892,348.506470 359.255890,349.915161 358.523468,351.370697 
	C353.964630,360.430298 349.785034,369.680786 345.135681,379.536926 
M87.196785,393.377686 
	C87.196785,395.648407 87.196785,397.919098 87.196785,400.415710 
	C90.551369,400.415710 93.278214,400.415710 96.147552,400.415710 
	C96.147552,382.952972 96.147552,365.779114 96.147552,348.693542 
	C93.017044,348.693542 90.280670,348.693542 87.196899,348.693542 
	C87.196899,363.524384 87.196899,377.967773 87.196785,393.377686 
M303.499237,371.500153 
	C303.499237,363.905457 303.499237,356.310760 303.499237,348.634827 
	C300.128967,348.634827 297.399872,348.634827 294.624664,348.634827 
	C294.624664,366.117340 294.624664,383.264313 294.624664,400.480865 
	C297.668518,400.480865 300.278168,400.480865 303.498749,400.480865 
	C303.498749,391.014557 303.498749,381.757355 303.499237,371.500153 
z"
  />
  <path
    fill="#176FA1"
    opacity="1.000000"
    stroke="none"
    d="
M239.982986,239.369705 
	C228.595947,261.772614 217.260635,284.202026 205.806320,306.570465 
	C195.757553,326.194061 181.666595,333.437775 159.819870,329.975220 
	C138.059998,326.526398 117.387657,319.907745 98.926620,307.491791 
	C61.949154,282.622681 44.534859,238.327347 54.489147,194.705200 
	C62.102516,161.341537 79.243973,134.586914 109.008865,116.785141 
	C124.794380,107.344139 142.048431,102.803558 160.446869,102.820366 
	C181.277634,102.839401 202.108444,102.944107 222.938934,103.063431 
	C229.792648,103.102692 233.845657,107.885925 233.830612,115.703621 
	C233.816162,123.207024 230.262085,126.933815 222.978241,126.830017 
	C204.316299,126.564072 185.569397,124.937050 167.012390,126.180687 
	C130.431610,128.632217 99.941223,142.948181 83.639984,177.958603 
	C58.850674,231.198975 95.361008,305.465393 167.082474,304.509644 
	C177.249069,304.374146 183.505356,297.823547 187.829987,289.453949 
	C202.809952,260.462738 217.611191,231.379166 232.463791,202.322220 
	C247.695389,172.523880 262.906921,142.715302 278.130585,112.912903 
	C278.509216,112.171700 278.844208,111.387863 279.340576,110.730354 
	C283.036377,105.834663 287.195740,101.043587 293.859131,101.460709 
	C300.804779,101.895515 305.895355,106.087578 308.955017,112.309853 
	C323.647156,142.188675 338.248230,172.112274 352.708832,202.547607 
	C343.421234,205.300858 334.306458,207.526428 325.096313,209.416687 
	C315.572479,189.600357 306.239227,170.072021 296.602020,150.694855 
	C295.315216,148.107544 292.489319,146.285706 290.376160,144.109390 
	C288.441498,146.256378 285.931213,148.109406 284.661346,150.595917 
	C272.166656,175.061172 259.878174,199.631714 247.236786,224.385590 
	C242.634888,225.318863 238.327347,226.038925 233.494339,226.846848 
	C235.818405,231.332199 237.900696,235.350952 239.982986,239.369705 
z"
  />
  <path
    fill="#ED7630"
    opacity="1.000000"
    stroke="none"
    d="
M240.256790,239.633774 
	C237.900696,235.350952 235.818405,231.332199 233.494339,226.846848 
	C238.327347,226.038925 242.634888,225.318863 247.704880,224.516113 
	C269.978485,220.462509 291.489655,216.491547 313.380737,212.503540 
	C314.950867,212.121994 316.141083,211.757507 317.728516,211.372116 
	C320.481079,210.818146 322.836395,210.285080 325.191681,209.752014 
	C334.306458,207.526428 343.421234,205.300858 352.838074,202.922577 
	C372.521332,197.717209 391.902496,192.664520 411.283661,187.611832 
	C411.444092,188.131897 411.604492,188.651978 411.764893,189.172058 
	C365.715942,213.162994 315.585358,225.790863 265.620697,240.213959 
	C270.701447,250.631836 275.561401,260.596924 280.669800,271.071472 
	C274.585663,273.820892 268.903259,276.388763 262.797180,279.148071 
	C255.272507,265.884003 247.901550,252.890930 240.256790,239.633774 
z"
  />
  <path
    fill="#176FA1"
    opacity="1.000000"
    stroke="none"
    d="
M368.598022,234.056702 
	C383.748749,265.177856 398.899475,296.299011 414.277100,327.886292 
	C410.039764,331.188690 405.064667,332.111603 399.925507,332.352112 
	C388.219818,332.899933 383.626373,330.029663 378.578156,319.588654 
	C366.769867,295.166046 354.894897,270.775696 343.144287,245.776047 
	C351.693726,241.472107 360.145874,237.764404 368.598022,234.056702 
z"
  />
  <path
    fill="#75B748"
    opacity="1.000000"
    stroke="none"
    d="
M368.869904,233.797729 
	C360.145874,237.764404 351.693726,241.472107 342.997742,245.421799 
	C340.579865,246.500488 338.405853,247.337204 335.620087,248.493408 
	C333.852631,249.271591 332.696960,249.730270 331.541260,250.188934 
	C325.523041,252.486862 319.504852,254.784790 312.979645,257.276276 
	C317.908112,267.132111 322.573883,276.462646 327.506348,286.326538 
	C322.173767,289.388855 317.053802,292.329071 311.319580,295.622070 
	C302.161499,279.450104 293.178711,263.587646 284.326935,247.956635 
	C335.842529,230.984863 387.193481,214.067322 438.544434,197.149765 
	C438.781372,197.631042 439.018311,198.112320 439.255249,198.593597 
	C415.884094,210.241974 392.512939,221.890366 368.869904,233.797729 
z"
  />
  <path
    fill="#2276A6"
    opacity="1.000000"
    stroke="none"
    d="
M164.496979,378.590881 
	C165.565735,379.886047 166.391312,380.896240 167.216888,381.906403 
	C167.602219,381.884552 167.987534,381.862701 168.372864,381.840820 
	C168.372864,376.351257 168.372864,370.861694 168.372864,365.372131 
	C168.372864,359.912537 168.372864,354.452911 168.372864,348.648438 
	C171.546173,348.648438 174.277328,348.648438 177.382385,348.648438 
	C177.382385,365.746033 177.382385,382.796844 177.382385,400.141205 
	C173.705353,401.371674 170.843277,400.974396 168.161957,397.302460 
	C160.635117,386.994843 152.720215,376.970581 143.990601,365.570770 
	C143.990601,378.030304 143.990601,389.013794 143.990601,400.344482 
	C140.617386,400.344482 137.884888,400.344482 134.783264,400.344482 
	C134.783264,383.142578 134.783264,365.948273 134.783264,348.785614 
	C138.969360,347.543945 141.738312,348.522247 144.304565,352.099396 
	C150.701508,361.016235 157.572861,369.592743 164.496979,378.590881 
z"
  />
  <path
    fill="#1C72A3"
    opacity="1.000000"
    stroke="none"
    d="
M214.006241,375.000000 
	C214.006241,366.022339 214.006241,357.544678 214.006241,347.806244 
	C223.871704,348.328674 233.636261,347.705170 242.878708,349.612122 
	C255.608093,352.238495 262.384857,364.938171 260.408203,379.224854 
	C258.710724,391.493744 248.563614,400.509705 236.051361,400.713470 
	C228.928055,400.829498 221.801331,400.734436 214.006241,400.734436 
	C214.006241,392.007660 214.006241,383.753815 214.006241,375.000000 
M229.617844,391.902863 
	C231.617126,391.900177 233.618011,391.948730 235.615402,391.885986 
	C244.631210,391.602722 251.155014,385.497162 251.840424,376.739319 
	C252.643967,366.472168 247.733612,358.897400 238.566772,357.488159 
	C233.741714,356.746368 228.708755,357.357086 223.546814,357.357086 
	C223.546814,368.874847 223.546814,380.105896 223.546814,391.669281 
	C225.444107,391.755554 227.063461,391.829163 229.617844,391.902863 
z"
  />
  <path
    fill="#1D73A4"
    opacity="1.000000"
    stroke="none"
    d="
M345.307678,379.202454 
	C349.785034,369.680786 353.964630,360.430298 358.523468,351.370697 
	C359.255890,349.915161 361.682892,348.506470 363.324219,348.509125 
	C365.603088,348.512817 369.203033,349.221436 369.953491,350.749756 
	C377.795074,366.719147 385.181183,382.912292 392.675323,399.051849 
	C392.796783,399.313477 392.690521,399.680878 392.690521,399.986603 
	C384.966187,401.733093 384.421783,401.671906 381.529846,394.590302 
	C380.094513,391.075592 378.165527,389.902893 374.450836,390.076599 
	C367.638580,390.395142 360.794922,390.409302 353.980011,390.145538 
	C350.663788,390.017212 348.543610,390.758331 347.665833,394.135681 
	C346.133606,400.031342 342.437592,402.207001 335.802826,400.039886 
	C338.902283,393.230865 342.018982,386.383881 345.307678,379.202454 
M366.420685,362.236542 
	C365.791595,361.228271 365.162506,360.220001 364.163208,358.618439 
	C360.476898,366.568604 357.109741,373.830505 353.608154,381.382294 
	C361.167328,381.382294 367.964386,381.382294 375.270508,381.382294 
	C372.271484,374.867249 369.514160,368.877350 366.420685,362.236542 
z"
  />
  <path
    fill="#2075A5"
    opacity="1.000000"
    stroke="none"
    d="
M87.196838,392.894409 
	C87.196899,377.967773 87.196899,363.524384 87.196899,348.693542 
	C90.280670,348.693542 93.017044,348.693542 96.147552,348.693542 
	C96.147552,365.779114 96.147552,382.952972 96.147552,400.415710 
	C93.278214,400.415710 90.551369,400.415710 87.196785,400.415710 
	C87.196785,397.919098 87.196785,395.648407 87.196838,392.894409 
z"
  />
  <path
    fill="#2175A5"
    opacity="1.000000"
    stroke="none"
    d="
M303.498993,372.000153 
	C303.498749,381.757355 303.498749,391.014557 303.498749,400.480865 
	C300.278168,400.480865 297.668518,400.480865 294.624664,400.480865 
	C294.624664,383.264313 294.624664,366.117340 294.624664,348.634827 
	C297.399872,348.634827 300.128967,348.634827 303.499237,348.634827 
	C303.499237,356.310760 303.499237,363.905457 303.498993,372.000153 
z"
  />
  <path
    fill="#2678A7"
    opacity="1.000000"
    stroke="none"
    d="
M331.651428,250.547150 
	C332.696960,249.730270 333.852631,249.271591 335.382629,248.750671 
	C350.857239,278.564484 364.716278,309.042267 381.103027,339.574432 
	C375.452698,338.591980 373.391571,335.760071 371.743530,332.398834 
	C358.423035,305.230988 345.090485,278.069061 331.651428,250.547150 
z"
  />
  <path
    fill="#FBFCFC"
    opacity="1.000000"
    stroke="none"
    d="
M325.096313,209.416702 
	C322.836395,210.285080 320.481079,210.818146 317.587830,210.994064 
	C307.436890,191.041901 297.823914,171.446869 288.210938,151.851837 
	C287.515198,151.971252 286.819458,152.090668 286.123718,152.210083 
	C286.123718,154.147858 285.465790,156.403091 286.224213,157.974915 
	C295.026062,176.216492 304.041779,194.354874 313.000824,212.520599 
	C291.489655,216.491547 269.978485,220.462509 247.999237,224.302917 
	C259.878174,199.631714 272.166656,175.061172 284.661346,150.595917 
	C285.931213,148.109406 288.441498,146.256378 290.376160,144.109390 
	C292.489319,146.285706 295.315216,148.107544 296.602020,150.694855 
	C306.239227,170.072021 315.572479,189.600357 325.096313,209.416702 
z"
  />
  <path
    fill="#2779A7"
    opacity="1.000000"
    stroke="none"
    d="
M313.380737,212.503540 
	C304.041779,194.354874 295.026062,176.216492 286.224213,157.974915 
	C285.465790,156.403091 286.123718,154.147858 286.123718,152.210083 
	C286.819458,152.090668 287.515198,151.971252 288.210938,151.851837 
	C297.823914,171.446869 307.436890,191.041901 317.190582,211.014984 
	C316.141083,211.757507 314.950867,212.121994 313.380737,212.503540 
z"
  />
  <path
    fill="#F8FBFC"
    opacity="1.000000"
    stroke="none"
    d="
M229.150330,391.902832 
	C227.063461,391.829163 225.444107,391.755554 223.546814,391.669281 
	C223.546814,380.105896 223.546814,368.874847 223.546814,357.357086 
	C228.708755,357.357086 233.741714,356.746368 238.566772,357.488159 
	C247.733612,358.897400 252.643967,366.472168 251.840424,376.739319 
	C251.155014,385.497162 244.631210,391.602722 235.615402,391.885986 
	C233.618011,391.948730 231.617126,391.900177 229.150330,391.902832 
z"
  />
  <path
    fill="#F2F7FA"
    opacity="1.000000"
    stroke="none"
    d="
M366.588776,362.561981 
	C369.514160,368.877350 372.271484,374.867249 375.270508,381.382294 
	C367.964386,381.382294 361.167328,381.382294 353.608154,381.382294 
	C357.109741,373.830505 360.476898,366.568604 364.163208,358.618439 
	C365.162506,360.220001 365.791595,361.228271 366.588776,362.561981 
z"
  />
</svg>
